<svg width="320" height="320" viewBox="0 0 320 320" fill="none" xmlns="http://www.w3.org/2000/svg">
  <title>Aqualume water logo</title>

  <path
    d="M130 52
       C124 62 118 71 118 80
       C118 93 128 102 140 102
       C152 102 162 93 162 80
       C162 71 156 62 150 52
       C146 45 144 42 140 35
       C136 42 134 45 130 52Z"
    fill="#63C4E3"
    stroke="#000000"
    stroke-width="6"
    stroke-linejoin="round"
  />

  <path
    d="M196 68
       C187 82 178 95 178 108
       C178 125 191 138 208 138
       C225 138 238 125 238 108
       C238 95 229 82 220 68
       C214 58 212 54 208 46
       C204 54 202 58 196 68Z"
    fill="#B9E3F2"
    stroke="#000000"
    stroke-width="7"
    stroke-linejoin="round"
  />

  <path
    d="M72 210
       C60 210 50 214 50 220
       C50 228 62 232 74 234
       C90 236 102 236 112 238
       C120 240 122 245 116 249
       C111 252 104 254 104 260
       C104 271 121 275 140 277
       C158 279 182 279 198 277
       C215 275 230 271 230 261
       C230 255 224 252 217 250
       C209 247 205 243 208 239
       C212 234 224 234 238 234
       C253 234 267 233 279 230
       C292 227 300 222 300 216
       C300 208 288 204 272 203
       C258 202 246 202 235 200
       C226 198 224 194 228 190
       C232 186 240 184 240 178
       C240 168 225 165 206 163
       C187 161 164 160 140 160
       C116 160 94 161 77 164
       C61 167 48 172 48 179
       C48 186 58 189 69 191
       C80 193 88 196 88 201
       C88 206 81 209 72 210Z"
    fill="#B9D8E6"
    stroke="#000000"
    stroke-width="7"
    stroke-linejoin="round"
  />

  <path
    d="M82 178
       C112 174 146 174 180 178
       C188 179 188 189 180 190
       C146 194 112 194 82 190
       C74 189 74 179 82 178Z"
    fill="#CDEAF6"
    opacity="0.8"
  />

  <path
    d="M192 250
       C209 246 229 246 246 249
       C252 250 252 258 246 259
       C229 262 209 262 192 259
       C186 258 186 251 192 250Z"
    fill="#A9D0E4"
    opacity="0.9"
  />

  <path
    d="M128 110
       C117 128 106 146 106 168
       C106 198 130 222 160 222
       C190 222 214 198 214 168
       C214 146 203 128 192 110
       C181 92 171 78 160 60
       C149 78 139 92 128 110Z"
    fill="#8CC2DD"
    stroke="#000000"
    stroke-width="8"
    stroke-linejoin="round"
  />

  <path
    d="M160 206
       C173 206 185 199 192 188"
    stroke="#000000"
    stroke-width="8"
    stroke-linecap="round"
  />

  <path
    d="M148 84
       L160 60
       L172 84"
    stroke="#000000"
    stroke-width="8"
    stroke-linecap="round"
    stroke-linejoin="round"
  />
</svg>